<svg xmlns="http://www.w3.org/2000/svg" width="189" height="310" viewBox="0 0 189 310" xmlns:xlink="http://www.w3.org/1999/xlink">
  <defs>
    <path id="a" d="M6,12 C9.3137085,12 12,9.3137085 12,6 C12,2.6862915 9.3137085,0 6,0 C2.6862915,0 0,2.6862915 0,6 C0,9.3137085 2.6862915,12 6,12 Z M1.903875,6.8934375 C1.903875,6.7035 2.035875,6.5675625 2.217375,6.5675625 C2.403,6.5675625 2.5310625,6.6995625 2.5310625,6.8934375 C2.5310625,7.0790625 2.4073125,7.2193125 2.217375,7.2193125 C2.0319375,7.2195 1.903875,7.07925 1.903875,6.8934375 Z M4.4161875,7.1120625 C4.3089375,7.1615625 4.0985625,7.2151875 3.8469375,7.2151875 C3.21975,7.2151875 2.8115625,6.8150625 2.8115625,6.1921875 C2.8115625,5.58975 3.2240625,5.1193125 3.929625,5.1193125 C4.1150625,5.1193125 4.305,5.16075 4.4205,5.214375 L4.32975,5.593875 C4.24725,5.55675 4.127625,5.5153125 3.946125,5.5153125 C3.558375,5.5153125 3.3271875,5.800125 3.3315,6.16725 C3.3315,6.57975 3.599625,6.8150625 3.946125,6.8150625 C4.1235,6.8150625 4.2470625,6.7779375 4.34625,6.7366875 L4.4161875,7.1120625 Z M7.0809375,5.763 C7.0809375,5.5321875 7.077,5.338125 7.0644375,5.164875 L7.5016875,5.164875 L7.5223125,5.4620625 L7.5345,5.4620625 C7.6335,5.305125 7.8151875,5.1195 8.1534375,5.1195 C8.4174375,5.1195 8.623875,5.2681875 8.7105,5.49075 L8.71875,5.49075 C8.788875,5.379375 8.871375,5.296875 8.96625,5.239125 C9.077625,5.16075 9.2055,5.1193125 9.3705,5.1193125 C9.704625,5.1193125 10.0430625,5.346375 10.0430625,5.9900625 L10.0430625,7.1739375 L9.547875,7.1739375 L9.547875,6.064125 C9.547875,5.73 9.432375,5.532 9.189,5.532 C9.0155625,5.532 8.887875,5.65575 8.8340625,5.800125 C8.8216875,5.849625 8.8093125,5.9115 8.8093125,5.96925 L8.8093125,7.1739375 L8.314125,7.1739375 L8.314125,6.0105 C8.314125,5.73 8.20275,5.532 7.9674375,5.532 C7.7776875,5.532 7.6498125,5.6805 7.6044375,5.82075 C7.5838125,5.87025 7.5755625,5.928 7.5755625,5.98575 L7.5755625,7.1739375 L7.080375,7.1739375 L7.080375,5.763 L7.0809375,5.763 L7.0809375,5.763 Z M6.6645,6.15075 C6.6645,6.889125 6.14475,7.2193125 5.6330625,7.2193125 C5.0638125,7.2193125 4.6265625,6.82725 4.6265625,6.1839375 C4.6265625,5.52375 5.0596875,5.1193125 5.6660625,5.1193125 C6.2641875,5.1193125 6.6645,5.5404375 6.6645,6.15075 Z M5.1504375,6.1715625 C5.1504375,6.5593125 5.340375,6.852375 5.6495625,6.852375 C5.9385,6.852375 6.140625,6.5675625 6.140625,6.1633125 C6.140625,5.849625 6.0001875,5.49075 5.6536875,5.49075 C5.2948125,5.49075 5.1504375,5.83725 5.1504375,6.1715625 Z"/>
  </defs>
  <g fill="none" fill-rule="evenodd" transform="translate(21 21)">
    <g fill="#96E28C" transform="translate(135)">
      <polyline points="12 3 6 0 0 3 6 6 12 3"/>
      <polyline points="6 7.102 2.297 5.25 0 6 6 9 12 6 9.891 5.203 6 7.102"/>
      <polyline points="6 10.102 2.297 8.25 0 9 6 12 12 9 9.891 8.203 6 10.102"/>
      <path d="M12,2.823 C10.851729,1.1295 8.81992285,0 6.49658253,0 C2.90884483,0 0,2.6865 0,6 C0,9.3135 2.90884483,12 6.49658253,12 C8.81992285,12 10.851729,10.8705 12,9.177 L6.49658253,6 L12,2.823 Z M5.2784733,4.6875 C4.49482304,4.6875 3.85734588,4.09875 3.85734588,3.375 C3.85734588,2.65125 4.49482304,2.0625 5.2784733,2.0625 C6.06212357,2.0625 6.69960073,2.65125 6.69960073,3.375 C6.69960073,4.09875 6.06212357,4.6875 5.2784733,4.6875 L5.2784733,4.6875 Z" transform="translate(1 24)"/>
      <g transform="translate(1 48)">
        <path d="M0,10 L12,10 L12,2.85714286 L0,2.85714286 L0,10 Z M0.75075,9.28571429 L11.25075,9.28571429 L11.25075,3.57142857 L0.75075,3.57142857 L0.75075,9.28571429 Z"/>
        <polygon points="8.251 6.429 10.501 6.429 10.501 4.286 8.251 4.286"/>
        <polygon points=".749 2.143 11.249 2.143 11.249 1.429 .749 1.429"/>
        <polygon points="1.5 .714 10.5 .714 10.5 0 1.5 0"/>
        <polygon points="2.251 6.429 5.251 6.429 5.251 5.714 2.251 5.714"/>
        <polygon points="2.251 7.857 6.751 7.857 6.751 7.143 2.251 7.143"/>
      </g>
      <g transform="translate(2 70)">
        <path d="M6,9.73425 L0.74925,9.73425 L0.74925,2.98425 L3.75,2.98425 L3.75,2.23425 L0.74925,2.23425 C0.3375,2.23425 0,2.5725 0,2.98425 L0,11.23425 C0,11.64675 0.3375,11.98425 0.74925,11.98425 L6,11.98425 C6.41175,11.98425 6.75,11.64675 6.75,11.23425 L6.75,5.98425 L6,5.98425 L6,9.73425 Z M2.99925,11.23425 L3.74925,11.23425 L3.74925,10.48425 L2.99925,10.48425 L2.99925,11.23425 Z"/>
        <path d="M4.5105,0 L4.5105,1.48425 L4.5,1.48425 L4.5,5.23425 L7.49925,5.23425 L7.49925,7.48425 L10.5105,5.23425 L11.99925,5.2575 L11.99925,0 L4.5105,0 Z M11.25,4.4925 L10.5225,4.482 L10.26675,4.4775 L10.062,4.6305 L8.25,5.98425 L8.25,4.47525 L7.494,4.482 L5.24925,4.482 L5.24925,2.247 L5.2605,2.247 L5.2605,0.747 L11.25,0.747 L11.25,4.4925 L11.25,4.4925 Z"/>
        <polygon points="6 2.984 6.75 2.984 6.75 2.234 6 2.234"/>
        <polygon points="7.499 2.984 8.249 2.984 8.249 2.234 7.499 2.234"/>
        <polygon points="9 2.984 9.75 2.984 9.75 2.234 9 2.234"/>
      </g>
    </g>
    <g fill="#96E28C">
      <path d="M8.0008,2.4 L8.0008,0 L4.8008,0 L4.8008,2.4 L0.0008,2.4 L0.0008,12 L12.8008,12 L12.8008,2.4 L8.0008,2.4 Z M5.6008,4 L7.2008,4 L7.2008,0.8 L5.6008,0.8 L5.6008,4 Z M12.0008,11.2 L0.8008,11.2 L0.8008,4 L4.8008,4 C4.8008,4.44 5.1608,4.8 5.6008,4.8 L7.2008,4.8 C7.64,4.8 8.0008,4.44 8.0008,4 L12.0008,4 L12.0008,11.2 L12.0008,11.2 Z"/>
      <path d="M4.3672,8.052 C3.9992,7.8984 3.9112,7.8448 3.9112,7.8448 L3.908,7.492 C3.908,7.492 4.0456,7.3848 4.0888,7.0528 C4.1744,7.0784 4.2664,6.924 4.2704,6.8432 C4.2752,6.7648 4.2584,6.5496 4.1536,6.5712 C4.1744,6.4072 4.1912,6.2616 4.1824,6.1832 C4.1552,5.8992 3.8752,5.6 3.4456,5.6 C3.016,5.6 2.736,5.8992 2.7096,6.1832 C2.7016,6.2616 2.7176,6.4072 2.7384,6.5712 C2.6336,6.5496 2.6168,6.7648 2.6216,6.8432 C2.6272,6.924 2.7176,7.0784 2.8032,7.0528 C2.8456,7.3848 2.9848,7.492 2.9848,7.492 L2.9808,7.8448 C2.9808,7.8448 2.8944,7.8984 2.5256,8.052 C2.1568,8.2048 1.7848,8.3136 1.6736,8.4848 C1.5744,8.6408 1.6048,9.0072 1.6048,9.0072 L5.2872,9.0072 C5.2872,9.0072 5.3176,8.6408 5.2176,8.4848 C5.1064,8.3136 4.7352,8.2048 4.3672,8.052"/>
      <polygon points="6.4 7.2 9.6 7.2 9.6 6.4 6.4 6.4"/>
      <polygon points="10.401 7.2 11.201 7.2 11.201 6.4 10.401 6.4"/>
      <polygon points="6.4 8.8 8.8 8.8 8.8 8 6.4 8"/>
      <polygon points="9.601 8.8 11.201 8.8 11.201 8 9.601 8"/>
      <path d="M10.5,24 L1.5,24 C1.08825,24 0.75,24.3375 0.75,24.75 L0.75,26.25 L1.875,26.25 C2.08125,26.25 2.25,26.41875 2.25,26.625 C2.25,26.83125 2.08125,27 1.875,27 L0.375,27 C0.16875,27 0,27.16875 0,27.375 C0,27.58125 0.16875,27.75 0.375,27.75 L0.75,27.75 L0.75,29.25 L1.875,29.25 C2.08125,29.25 2.25,29.41875 2.25,29.625 C2.25,29.83125 2.08125,30 1.875,30 L0.375,30 C0.16875,30 0,30.16875 0,30.375 C0,30.58125 0.16875,30.75 0.375,30.75 L0.75,30.75 L0.75,32.25 L1.875,32.25 C2.08125,32.25 2.25,32.41875 2.25,32.625 C2.25,32.83125 2.08125,33 1.875,33 L0.375,33 C0.16875,33 0,33.16875 0,33.375 C0,33.58125 0.16875,33.75 0.375,33.75 L0.75,33.75 L0.75,35.25 C0.75,35.6625 1.08825,36 1.5,36 L10.5,36 C10.91325,36 11.25,35.6625 11.25,35.25 L11.25,24.75 C11.25,24.3375 10.91325,24 10.5,24 Z M8.9955,31.5 L4.66425,31.5 C4.66425,31.5 4.629,30.6255 4.7445,30.44325 C4.875,30.24 5.313,30.114 5.7465,29.93325 C6.18,29.7525 6.28275,29.69025 6.28275,29.69025 L6.28575,29.27475 C6.28575,29.27475 6.1245,29.15025 6.0735,28.75875 C5.97225,28.788 5.865,28.60725 5.859,28.512 C5.85375,28.4205 5.874,28.1655 5.997,28.191 C5.97225,27.99975 5.955,27.82725 5.96325,27.73575 C5.9955,27.402 6.324,27.05025 6.8295,27.05025 C7.33425,27.05025 7.66425,27.402 7.6965,27.73575 C7.70475,27.82725 7.686,27.99975 7.66125,28.191 C7.78425,28.1655 7.8045,28.4205 7.7985,28.512 C7.79325,28.60725 7.686,28.788 7.58475,28.75875 C7.53525,29.15025 7.3725,29.27475 7.3725,29.27475 L7.377,29.69025 C7.377,29.69025 7.47975,29.7525 7.91175,29.93325 C8.34525,30.114 8.78325,30.24 8.91375,30.44325 C9.03075,30.6255 8.9955,31.5 8.9955,31.5 L8.9955,31.5 Z"/>
      <g transform="translate(0 50)">
        <path d="M10.50075,0 L1.67775,0 L4.677,1.5 L9.75,1.5 L9.75,2.25 L6.17625,2.25 L7.16475,2.74425 C7.56075,2.9415 7.89225,3.32175 8.0805,3.75 L9.75,3.75 L9.75,4.5 L8.25075,4.5 L8.25075,8.25 L10.50075,8.25 C10.9125,8.25 11.25075,7.9125 11.25075,7.5 L11.25075,0.75 C11.25075,0.3375 10.9125,0 10.50075,0"/>
        <path d="M6.8295,3.41475 L0.67125,0.33525 C0.5745,0.2865 0.48225,0.264 0.39975,0.264 C0.16425,0.264 0.00075,0.4455 0.00075,0.74925 L0.00075,7.49925 C0.00075,7.91175 0.30225,8.40075 0.67125,8.58525 L6.8295,11.66475 C6.92625,11.7135 7.0185,11.736 7.101,11.736 C7.3365,11.736 7.5,11.5545 7.5,11.24925 L7.5,4.49925 C7.5,4.0875 7.1985,3.5985 6.8295,3.41475 Z M5.25,8.25 C4.836,8.25 4.50075,7.74675 4.50075,7.125 C4.50075,6.50325 4.836,6 5.25,6 C5.66475,6 6.00075,6.50325 6.00075,7.125 C6.00075,7.74675 5.66475,8.25 5.25,8.25 L5.25,8.25 Z"/>
      </g>
    </g>
    <g transform="translate(27)">
      <g fill="#96E28C" transform="translate(0 120)">
        <path d="M12.8571429 1.54285714C12.8571429.691714286 12.2811429 0 11.5714286 0 10.8608571 0 10.2857143.691714286 10.2857143 1.54285714 10.2857143 2.39485714 10.8608571 3.08571429 11.5714286 3.08571429 12.2811429 3.08571429 12.8571429 2.39485714 12.8571429 1.54285714M3.42857143 1.54285714C3.42857143.691714286 2.85257143 0 2.14285714 0 1.43228571 0 .857142857.691714286.857142857 1.54285714.857142857 2.39485714 1.43228571 3.08571429 2.14285714 3.08571429 2.85257143 3.08571429 3.42857143 2.39485714 3.42857143 1.54285714M3.42857143 4.71428571C3.42857143 4.13057143 3.55028571 3.582 3.75342857 3.08571429L1.71428571 3.08571429C.771428571 3.08571429 0 3.85714286 0 4.8L0 6.51428571 3.834 6.51428571C3.58371429 5.97428571 3.42857143 5.36828571 3.42857143 4.71428571M12 3.08571429L9.81771429 3.08571429C10.0208571 3.582 10.1434286 4.13057143 10.1434286 4.71428571 10.1434286 5.36828571 9.98742857 5.97428571 9.73714286 6.51428571L13.7142857 6.51428571 13.7142857 4.8C13.7142857 3.85714286 12.942 3.08571429 12 3.08571429"/>
        <path d="M9.15428571,7.44428571 C8.96571429,7.40057143 8.772,7.37142857 8.57142857,7.37142857 L7.92257143,7.37142857 C8.72828571,6.87342857 9.28542857,5.87742857 9.28542857,4.71428571 C9.28542857,3.05828571 8.166,1.71428571 6.786,1.71428571 C5.40428571,1.71428571 4.28571429,3.05828571 4.28571429,4.71428571 C4.28571429,5.87742857 4.842,6.87342857 5.64857143,7.37142857 L5.14285714,7.37142857 C4.902,7.37142857 4.674,7.416 4.452,7.47857143 C3.37285714,7.78285714 2.57142857,8.76942857 2.57142857,9.94285714 L2.57142857,11.6571429 L11.1428571,11.6571429 L11.1428571,9.94285714 C11.1428571,8.73 10.2891429,7.71085714 9.15428571,7.44428571"/>
      </g>
      <path fill="#96E28C" d="M11.200007,4.8 L10.400007,4.8 C10.343207,4.8 10.291207,4.8216 10.238407,4.8328 C10.135207,4.4592 9.98320701,4.1048 9.79120701,3.7784 C9.81040701,3.7624 9.83360701,3.7552 9.85120701,3.7376 L10.416807,3.172 C10.729607,2.8592 10.729607,2.3528 10.416807,2.0408 L9.85120701,1.4736 C9.53840701,1.1608 9.03200701,1.1608 8.71920701,1.4736 L8.15280701,2.0408 C8.12640701,2.0672 8.11520701,2.1016 8.09280701,2.1312 C7.80320701,1.9736 7.49120701,1.8512 7.16720701,1.7624 C7.17920701,1.7088 7.20000701,1.6576 7.20000701,1.6 L7.20000701,0.8 C7.20000701,0.3584 6.84160701,0 6.40000701,0 L5.60000701,0 C5.15840701,0 4.80000701,0.3584 4.80000701,0.8 L4.80000701,1.6 C4.80000701,1.6576 4.82080701,1.7088 4.83280701,1.7624 C4.44880701,1.8688 4.08560701,2.0248 3.75120701,2.2248 C3.71600701,2.1608 3.68320701,2.0952 3.62880701,2.0408 L3.06240701,1.4744 C2.91280701,1.324 2.70880701,1.24 2.49680701,1.24 C2.28480701,1.24 2.08160701,1.324 1.93120701,1.4744 L1.36480701,2.0408 C1.05280701,2.3528 1.05280701,2.8592 1.36480701,3.172 L1.93120701,3.7376 C1.99280701,3.8 2.06880701,3.8432 2.14640701,3.8816 C1.98160701,4.1792 1.85360701,4.4984 1.76160701,4.8328 C1.70880701,4.8216 1.65680701,4.8 1.60000701,4.8 L0.800007015,4.8 C0.358407015,4.8 7.01455838e-06,5.1584 7.01455838e-06,5.6 L7.01455838e-06,6.4 C7.01455838e-06,6.8424 0.358407015,7.2 0.800007015,7.2 L1.60000701,7.2 C1.65680701,7.2 1.70880701,7.18 1.76160701,7.1672 C1.85360701,7.5024 1.98160701,7.8216 2.14640701,8.12 C2.06960701,8.1576 1.99440701,8.2 1.93120701,8.2624 L1.36560701,8.828 C1.05280701,9.1408 1.05280701,9.6472 1.36560701,9.9592 L1.93120701,10.5248 C2.24400701,10.8376 2.75040701,10.8376 3.06240701,10.5248 L3.62800701,9.9592 C3.68320701,9.9048 3.71520701,9.8392 3.75120701,9.7752 C4.08480701,9.9752 4.44880701,10.1328 4.83280701,10.2384 C4.82080701,10.292 4.80000701,10.3432 4.80000701,10.4 L4.80000701,11.2 C4.80000701,11.6424 5.15840701,12 5.60000701,12 L6.40000701,12 C6.84160701,12 7.20000701,11.6424 7.20000701,11.2 L7.20000701,10.4 C7.20000701,10.3432 7.17920701,10.292 7.16720701,10.2384 C7.49120701,10.1488 7.80320701,10.0272 8.09280701,9.8704 C8.11520701,9.8984 8.12720701,9.9344 8.15280701,9.9592 L8.71840701,10.5248 C9.03120701,10.8376 9.53760701,10.8376 9.84960701,10.5248 L10.416807,9.9592 C10.566407,9.8096 10.651207,9.6064 10.651207,9.3936 C10.651207,9.1824 10.566407,8.9784 10.416807,8.828 L9.85120701,8.2624 C9.83360701,8.2456 9.81040701,8.2392 9.79120701,8.2232 C9.98320701,7.8952 10.135207,7.5424 10.238407,7.1672 C10.291207,7.18 10.343207,7.2 10.400007,7.2 L11.200007,7.2 C11.641607,7.2 12.000007,6.8424 12.000007,6.4 L12.000007,5.6 C12.000007,5.1584 11.641607,4.8 11.200007,4.8 Z M3.20000701,6 C3.20000701,4.4544 4.45360701,3.2 6.00000701,3.2 C7.54640701,3.2 8.80000701,4.4544 8.80000701,6 C8.80000701,7.5472 7.54640701,8.8 6.00000701,8.8 C4.45360701,8.8 3.20000701,7.5472 3.20000701,6 L3.20000701,6 Z" transform="translate(1)"/>
      <g fill="#96E28C" transform="translate(1 263)">
        <polyline points="0 8.063 6 11.063 6 7.25 0 4.25 0 8.063"/>
        <polyline points="6.75 11 12 8.375 12 4.25 6.751 7.156 6.75 11"/>
        <path d="M10.5 2.844L10.5 3.015 10.49475 3.015C10.47 3.285 9.81225 3.50025 9 3.50025 8.18775 3.50025 7.53 3.285 7.50525 3.015L7.5 3.015 7.5 1.96875 7.50975 1.96875 7.5 2.00025C7.5 2.27625 8.172 2.49975 9 2.49975 9.82875 2.49975 10.5 2.27625 10.5 2.00025 10.5 1.7235 9.82875 1.5 9 1.5 8.5335 1.5 8.1225 1.572 7.84725 1.68375L7.49025 1.527C7.4475 1.791 6.7995 2.00025 6 2.00025 5.2005 2.00025 4.5525 1.791 4.50975 1.527L4.15275 1.68375C3.8775 1.572 3.4665 1.5 3 1.5 2.172 1.5 1.5 1.7235 1.5 2.00025 1.5 2.27625 2.172 2.49975 3 2.49975 3.82875 2.49975 4.5 2.27625 4.5 2.00025L4.49025 1.96875 4.5 1.96875 4.5 3.015 4.49475 3.015C4.47 3.285 3.81225 3.50025 3 3.50025 2.18775 3.50025 1.53 3.285 1.50525 3.015L1.5 3.015 1.5 2.844 0 3.50025 6 6.50025 12 3.50025 10.5 2.844zM7.5 4.57725L7.49475 4.57725C7.47 4.84725 6.81225 5.0625 6 5.0625 5.18775 5.0625 4.53 4.84725 4.50525 4.57725L4.5 4.57725 4.5 3.531 4.50975 3.531 4.5 3.5625C4.5 3.8385 5.17125 4.062 6 4.062 6.828 4.062 7.5 3.8385 7.5 3.5625L7.49025 3.531 7.5 3.531 7.5 4.57725 7.5 4.57725zM6 .99975C6.828.99975 7.5.77625 7.5.50025 7.5.2235 6.828 0 6 0 5.17125 0 4.5.2235 4.5.50025 4.5.77625 5.17125.99975 6 .99975"/>
      </g>
      <path fill="#96E28C" d="M11.8913126,10.4018501 C11.7403958,10.2498511 9.98462714,8.49023003 9.98462714,8.49023003 L9.61200277,8.11566106 C9.61200277,8.11566106 9.75436239,7.50999156 9.61433653,7.37040064 C9.47586652,7.23003422 9.38173802,7.1369736 9.38173802,7.1369736 C9.38173802,7.1369736 9.24171216,6.99660718 9.07757074,7.15868774 C8.91342932,7.32154382 8.49101797,7.74031658 8.49101797,7.74031658 L6.9172829,6.16061266 L7.76755104,5.31763859 C8.15340007,5.51694341 8.58514647,5.64102423 9.05034349,5.64257524 C10.6061864,5.64800377 11.8703087,4.394012 11.8749762,2.84300176 C11.8757542,2.70728837 11.7932945,2.58320755 11.6672712,2.5296977 C11.54047,2.47696335 11.3949987,2.50565704 11.2977585,2.60259518 L10.2919061,3.59911925 L8.65204771,3.24548892 L8.30587267,1.60917312 L9.30939133,0.613424548 C9.40896527,0.516486409 9.43852629,0.368364931 9.38484971,0.239631081 C9.33272897,0.110897232 9.2067057,0.0271426791 9.06667984,0.026367174 C7.51083696,0.0224896484 6.24671462,1.27415491 6.24204709,2.82516515 C6.24126917,3.34087605 6.38829632,3.8178117 6.63022989,4.23348244 L5.80874485,5.04853832 L3.24627163,2.47851436 L2.68850195,1.5448062 L1.94247529,0.797219261 L0.496319336,0 L0.260609139,0.23187603 L0.0264547857,0.464527566 L0.816822969,1.91162012 L1.56284963,2.65998255 L2.49557744,3.22222377 L5.05882858,5.79224773 L4.2357877,6.60730361 C3.82037765,6.363795 3.34195596,6.21334701 2.82541613,6.211796 C1.26957325,6.20636746 0.00545090686,7.45958373 5.45677538e-06,9.01059397 C-0.000772464665,9.14708287 0.081687208,9.27193919 0.207710481,9.32467354 C0.333733755,9.37740789 0.479205064,9.3487142 0.576445244,9.25177606 L1.58307559,8.25525198 L3.2237119,8.60888232 L3.56910902,10.2451981 L2.56559037,11.2401712 C2.46679434,11.3378848 2.43645541,11.4860063 2.48935406,11.6147402 C2.54303064,11.743474 2.668276,11.8272286 2.80674601,11.8280041 C4.36258889,11.8311061 5.62671123,10.5802163 5.63215668,9.02920609 C5.63371253,8.56545403 5.51157886,8.13427318 5.31398681,7.74962264 L6.16658871,6.90432207 L7.74032378,8.48325049 C7.74032378,8.48325049 7.31946829,8.90047224 7.15454894,9.06410382 C6.99040752,9.22618439 7.12965545,9.36732632 7.12965545,9.36732632 C7.12965545,9.36732632 7.22378395,9.45961143 7.36380981,9.59997786 C7.50383567,9.74111979 8.11139231,9.60230437 8.11139231,9.60230437 L8.48401668,9.97764885 C8.48401668,9.97764885 10.2390075,11.73727 10.3899242,11.889269 C10.5431747,12.0420435 10.9982588,12.0311864 11.1390626,11.89082 C11.2798663,11.7527801 11.5147986,11.519353 11.5147986,11.519353 C11.5147986,11.519353 11.7497309,11.287477 11.8897567,11.1478861 C12.0297826,11.0090707 12.0430073,10.5546247 11.8913126,10.4018501" transform="translate(1 24)"/>
      <g fill="#96E28C" transform="translate(2 48)">
        <path d="M7.24344569,6 C7.2427757,5.85902245 7.22898322,5.71841429 7.20224719,5.58 L7.99250936,4.875 L6.99625468,3.75 L6.42322097,4.25625 C6.21950087,4.0925314 5.98883073,3.96563114 5.74157303,3.88125 L5.74157303,3 L4.24719101,3 L4.24719101,3.88125 C3.99993332,3.96563114 3.76926318,4.0925314 3.56554307,4.25625 L2.98876404,3.75 L2,4.875 L2.78277154,5.57625 C2.7287318,5.85363607 2.7287318,6.13886393 2.78277154,6.41625 L2,7.125 L2.99625468,8.25 L3.56928839,7.74375 C3.77300849,7.9074686 4.00367864,8.03436886 4.25093633,8.11875 L4.25093633,9 L5.74906367,9 L5.74906367,8.11875 C5.99632136,8.03436886 6.22699151,7.9074686 6.43071161,7.74375 L7.00374532,8.25 L8,7.125 L7.20973783,6.42375 C7.23430497,6.28388164 7.24559128,6.14199858 7.24344569,6 Z M4.99625468,7.125 C4.37571002,7.125 3.87265918,6.62132034 3.87265918,6 C3.87265918,5.37867966 4.37571002,4.875 4.99625468,4.875 C5.61679934,4.875 6.11985019,5.37867966 6.11985019,6 C6.11985019,6.62132034 5.61679934,7.125 4.99625468,7.125 Z"/>
        <rect width=".781" height=".787" y="11.022"/>
        <rect width=".781" height=".787" y="9.448"/>
        <rect width=".781" height=".787" y="7.874"/>
        <rect width=".781" height=".787" y="6.3"/>
        <rect width=".781" height=".787" y="4.722"/>
        <rect width=".781" height=".787" x="9.373" y="9.448"/>
        <rect width=".781" height=".787" x="9.373" y="7.874"/>
        <rect width=".781" height=".787" x="9.373" y="6.3"/>
        <rect width=".781" height=".787" x="9.373" y="4.722"/>
        <rect width=".781" height=".787" y="3.148"/>
        <rect width=".781" height=".787" y="1.574"/>
        <rect width=".781" height=".787"/>
        <rect width=".781" height=".787" x="1.562"/>
        <rect width=".781" height=".787" x="3.123"/>
        <rect width=".781" height=".787" x="4.685"/>
        <rect width=".781" height=".787" x="6.25"/>
        <rect width=".781" height=".787" x="7.461" y="1.221"/>
        <rect width=".781" height=".787" x="1.562" y="11.022"/>
        <rect width=".781" height=".787" x="3.123" y="11.022"/>
        <rect width=".781" height=".787" x="4.685" y="11.022"/>
        <rect width=".781" height=".787" x="6.25" y="11.022"/>
        <rect width=".781" height=".787" x="7.811" y="11.022"/>
        <rect width=".781" height=".787" x="9.373" y="3.148"/>
        <rect width=".781" height=".787" x="9.373" y="11.022"/>
        <rect width=".781" height=".787" x="8.512" y="2.28"/>
      </g>
      <g fill="#96E28C" transform="translate(2 96)">
        <path d="M5.13333333 3C5.9444 3 6.60073333 2.328 6.60073333 1.5 6.60073333.672 5.9444 0 5.13333333 0 4.323 0 3.6674.672 3.6674 1.5 3.6674 2.328 4.323 3 5.13333333 3M9.53333333 6L.733333333 6C.330733333 6 .000733333333 6.3375.000733333333 6.75.000733333333 7.1625.330733333 7.5.733333333 7.5L2.93333333 7.5 3.6674 12 6.60073333 12 7.33333333 7.5 9.53333333 7.5C9.93666667 7.5 10.2674 7.1625 10.2674 6.75 10.2674 6.3375 9.93666667 6 9.53333333 6M6.60073333 3L5.8674 3 5.13333333 4.5 4.40073333 3 3.6674 3C2.45666667 3 1.4674 4.0125 1.4674 5.25L8.80073333 5.25C8.80073333 4.0125 7.81073333 3 6.60073333 3"/>
      </g>
      <g stroke="#96E28C" transform="translate(1 144)">
        <circle cx="7" cy="7" r="3"/>
        <circle cx="6" cy="6" r="6"/>
      </g>
      <path fill="#96E28C" d="M6,12 C9.3137085,12 12,9.3137085 12,6 C12,2.6862915 9.3137085,0 6,0 C2.6862915,0 0,2.6862915 0,6 C0,9.3137085 2.6862915,12 6,12 Z M7,10 C8.65685425,10 10,8.65685425 10,7 C10,5.34314575 8.65685425,4 7,4 C5.34314575,4 4,5.34314575 4,7 C4,8.65685425 5.34314575,10 7,10 Z" transform="translate(1 167)"/>
      <g fill="#96E28C" transform="translate(0 191)">
        <path d="M2.48605882 1.3125C2.16870588 1.3125 1.91252941 1.5645 1.91252941 1.875 1.91252941 2.1855 2.16870588 2.4375 2.48605882 2.4375 2.80264706 2.4375 3.05958824 2.1855 3.05958824 1.875 3.05958824 1.5645 2.80264706 1.3125 2.48605882 1.3125M4.01470588 1.3125C3.69811765 1.3125 3.44117647 1.5645 3.44117647 1.875 3.44117647 2.1855 3.69811765 2.4375 4.01470588 2.4375 4.33205882 2.4375 4.58823529 2.1855 4.58823529 1.875 4.58823529 1.5645 4.33205882 1.3125 4.01470588 1.3125M5.54488235 1.3125C5.22752941 1.3125 4.97135294 1.5645 4.97135294 1.875 4.97135294 2.1855 5.22752941 2.4375 5.54488235 2.4375 5.86147059 2.4375 6.11841176 2.1855 6.11841176 1.875 6.11841176 1.5645 5.86147059 1.3125 5.54488235 1.3125"/>
        <path d="M10.7066471,0 L1.53017647,0 C0.685941176,0 0,0.67275 0,1.5 L0,10.5 C0,11.32725 0.685941176,12 1.53017647,12 L3.82429412,12 L3.82429412,11.25 L1.53017647,11.25 C1.10958824,11.25 0.765470588,10.9125 0.765470588,10.5 L0.765470588,3.75 L11.4705882,3.75 L11.4705882,6 L12.2360588,6 L12.2360588,1.5 C12.2360588,0.67275 11.5501176,0 10.7066471,0 Z M11.4705882,3 L0.765470588,3 L0.765470588,1.5 C0.765470588,1.0875 1.10958824,0.75 1.53017647,0.75 L10.7066471,0.75 C11.1264706,0.75 11.4705882,1.0875 11.4705882,1.5 L11.4705882,3 L11.4705882,3 Z"/>
        <path d="M10.3235294 8.25C10.5338235 8.25 10.7066471 8.08125 10.7066471 7.875L10.7066471 5.625C10.7066471 5.41875 10.5338235 5.25 10.3235294 5.25L8.02941176 5.25C7.81988235 5.25 7.64782353 5.41875 7.64782353 5.625L7.64782353 7.875C7.64782353 8.08125 7.81988235 8.25 8.02941176 8.25L10.3235294 8.25M11.8537059 9L9.55958824 9C9.34929412 9 9.17647059 9.16875 9.17647059 9.375L9.17647059 11.625C9.17647059 11.83125 9.34929412 12 9.55958824 12L11.8537059 12C12.0632353 12 12.2360588 11.83125 12.2360588 11.625L12.2360588 9.375C12.2360588 9.16875 12.0632353 9 11.8537059 9M8.02941176 9L5.73529412 9C5.52576471 9 5.35370588 9.16875 5.35370588 9.375L5.35370588 11.625C5.35370588 11.83125 5.52576471 12 5.73529412 12L8.02941176 12C8.23970588 12 8.41252941 11.83125 8.41252941 11.625L8.41252941 9.375C8.41252941 9.16875 8.23970588 9 8.02941176 9"/>
      </g>
      <path fill="#96E28C" d="M6,0 C2.6865,0 0,2.35125 0,5.25 C0,6.624 0.60975,7.87125 1.59675,8.80725 L0,12 L3.7635,10.119 C4.455,10.36275 5.20875,10.5 6,10.5 C9.315,10.5 12,8.1495 12,5.25 C12,2.35125 9.315,0 6,0 Z M5.46525,1.275 L6.58275,1.275 C6.975,1.275 7.017,1.527 7.017,1.63575 L6.77625,5.95275 C6.74025,6.294 6.57375,6.363 6.33225,6.363 L5.7375,6.363 C5.49675,6.363 5.3295,6.294 5.2935,5.94225 L5.05275,1.63575 C5.05275,1.527 5.09325,1.275 5.46525,1.275 Z M6.04125,9.237 C5.42625,9.237 4.92675,8.74275 4.92675,8.1345 C4.92675,7.5105 5.4165,7.0215 6.04125,7.0215 C6.64875,7.0215 7.143,7.521 7.143,8.1345 C7.143,8.73225 6.639,9.237 6.04125,9.237 L6.04125,9.237 Z" transform="translate(1 215)"/>
      <g fill="#96E28C" transform="translate(1 239)">
        <path d="M3.18675 1.3125C2.87625 1.3125 2.62425 1.5645 2.62425 1.875 2.62425 2.1855 2.87625 2.4375 3.18675 2.4375 3.498 2.4375 3.74925 2.1855 3.74925 1.875 3.74925 1.5645 3.498 1.3125 3.18675 1.3125M4.6875 1.3125C4.37625 1.3125 4.125 1.5645 4.125 1.875 4.125 2.1855 4.37625 2.4375 4.6875 2.4375 4.998 2.4375 5.25 2.1855 5.25 1.875 5.25 1.5645 4.998 1.3125 4.6875 1.3125M6.1875 1.3125C5.87625 1.3125 5.625 1.5645 5.625 1.875 5.625 2.1855 5.87625 2.4375 6.1875 2.4375 6.498 2.4375 6.75 2.1855 6.75 1.875 6.75 1.5645 6.498 1.3125 6.1875 1.3125"/>
        <polygon points="0 12 1.5 12 1.5 8.25 0 8.25"/>
        <path d="M10.49925,9.75 L5.99925,9.75 C5.25,9.75 5.25,9 5.99925,9 C7.5,9 8.24925,7.5 5.99925,7.5 C4.956,7.5 3.54975,7.863 2.79,8.0835 C2.4705,8.17725 2.25,8.4705 2.25,8.8035 L2.25,10.78575 C2.25,11.07075 2.412,11.33175 2.6685,11.4585 C3.76575,12 3.90375,12 5.25,12 C8.745,12 14.09925,9.75 10.49925,9.75"/>
        <path d="M10.49925,8.25 L11.25,8.25 L11.25,1.5 C11.25,0.67275 10.57725,0 9.75,0 L2.25,0 C1.422,0 0.75,0.67275 0.75,1.5 L0.75,6.75 L1.49925,6.75 L1.49925,3.75 L10.49925,3.75 L10.49925,8.25 Z M1.49925,3 L1.49925,1.5 C1.49925,1.0875 1.8375,0.75 2.25,0.75 L9.75,0.75 C10.16175,0.75 10.49925,1.0875 10.49925,1.5 L10.49925,3 L1.49925,3 L1.49925,3 Z"/>
      </g>
      <path fill="#96E28C" d="M7.25583333,0 L3.33333333,0 L3.33333333,1.71428571 L1.66666667,1.71428571 L1.66666667,3.42857143 L0,3.42857143 L0,12 L6.66666667,12 L6.66666667,10.2857143 L8.33333333,10.2857143 L8.33333333,8.57142857 L10,8.57142857 L10,2.82257143 L7.25583333,0 Z M7.5,1.46314286 L8.5775,2.57142857 L7.5,2.57142857 L7.5,1.46314286 Z M5.83333333,11.1428571 L0.833333333,11.1428571 L0.833333333,4.28571429 L1.66666667,4.28571429 L1.66666667,10.2857143 L5.83333333,10.2857143 L5.83333333,11.1428571 Z M7.5,9.42857143 L2.5,9.42857143 L2.5,2.57142857 L3.33333333,2.57142857 L3.33333333,8.57142857 L7.5,8.57142857 L7.5,9.42857143 Z M9.16666667,7.71428571 L4.16666667,7.71428571 L4.16666667,0.857142857 L6.66666667,0.857142857 L6.66666667,3.42857143 L9.16666667,3.42857143 L9.16666667,7.71428571 L9.16666667,7.71428571 Z" transform="translate(3 72)"/>
    </g>
    <g fill="#96E28C" transform="translate(55)">
      <path d="M0,3 L0,9 C0,10.40625 0,12 2.1428211,12 L4.9999159,12 C6.61274592,12 7.00773927,11.09625 7.10630905,10.04925 L9.84197732,6.47325 C10.0712592,6.17475 10.0484024,5.74425 9.79054961,5.47275 C9.70269395,5.3805 9.22841621,4.92075 8.54485628,4.92075 C8.24057568,4.92075 7.78701188,5.016 7.3520192,5.47275 L6.4284633,6.4425 L6.4284633,1.50075 C6.4284633,1.089 6.10632586,0.75 5.7141896,0.75 L4.9999159,0.75 C4.9999159,0.339 4.67777846,0 4.2856422,0 L3.5713685,0 C3.17780369,0 2.8570948,0.339 2.8570948,0.75 L2.1428211,0.75 C1.74925629,0.75 1.4285474,1.089 1.4285474,1.50075 L1.4285474,2.25 L0.7142737,2.25 C0.320708891,2.25 0,2.589 0,3 Z M0.7142737,3 L1.4285474,3 L1.4285474,6.00075 L2.1428211,6.00075 L2.1428211,1.50075 L2.8570948,1.50075 L2.8570948,6.00075 L3.5713685,6.00075 L3.5713685,0.75 L4.2856422,0.75 L4.2856422,6.00075 L4.9999159,6.00075 L4.9999159,1.50075 L5.7141896,1.50075 L5.7141896,7.5 L6.4284633,7.5 L6.4284633,7.503 C6.4284633,7.503 7.142737,6.753 7.8570107,6.003 C8.09557812,5.75325 8.33271699,5.67075 8.54485628,5.67075 C8.96770631,5.67075 9.28555811,6.003 9.28555811,6.003 L6.4284633,9.73725 L6.4284633,9.75 L6.41560638,9.75 C6.37560705,10.74525 6.16346776,11.25 4.9999159,11.25 L2.1428211,11.25 C0.7142737,11.25 0.7142737,10.50075 0.7142737,9 L0.7142737,3.75075 L0.7142737,3 L0.7142737,3 Z" transform="translate(2 24)"/>
      <g transform="translate(0 48)">
        <polygon points="4.5 5.385 12 5.385 12 0 4.5 0"/>
        <polyline points="3.75 2.308 2.25 2.308 2.25 7.692 9.75 7.692 9.75 6.154 3.75 6.154 3.75 2.308"/>
        <polyline points="1.5 4.615 0 4.615 0 10 7.5 10 7.5 8.462 1.5 8.462 1.5 4.615"/>
      </g>
      <g transform="translate(2 71)">
        <path d="M0,0 L0,11.25 L0.74925,11.25 L0.74925,12 L9,12 L9,11.25 L9.74925,11.25 L9.74925,0 L0,0 Z M0.74925,10.5 L8.99925,10.5 L8.99925,0.75 L0.74925,0.75 L0.74925,10.5 Z"/>
        <path d="M1.5,9.75 L8.25,9.75 L8.25,1.5 L1.5,1.5 L1.5,9.75 Z M2.25,9 L7.5,9 L7.5,6 L2.25,6 L2.25,9 Z M2.25,5.25 L7.5,5.25 L7.5,2.25 L2.25,2.25 L2.25,5.25 Z"/>
        <path d="M4.875 3.75C5.496 3.75 6 3.41475 6 3L3.75 3C3.75 3.41475 4.25325 3.75 4.875 3.75M4.875 7.5C5.496 7.5 6 7.16475 6 6.75L3.75 6.75C3.75 7.16475 4.25325 7.5 4.875 7.5"/>
      </g>
      <g transform="translate(0 94)">
        <path d="M8.0008,2.4 L8.0008,0 L4.8008,0 L4.8008,2.4 L0.0008,2.4 L0.0008,12 L12.8008,12 L12.8008,2.4 L8.0008,2.4 Z M5.6008,4 L7.2008,4 L7.2008,0.8 L5.6008,0.8 L5.6008,4 Z M12.0008,11.2 L0.8008,11.2 L0.8008,4 L4.8008,4 C4.8008,4.44 5.1608,4.8 5.6008,4.8 L7.2008,4.8 C7.64,4.8 8.0008,4.44 8.0008,4 L12.0008,4 L12.0008,11.2 L12.0008,11.2 Z"/>
        <path d="M4.3672,8.052 C3.9992,7.8984 3.9112,7.8448 3.9112,7.8448 L3.908,7.492 C3.908,7.492 4.0456,7.3848 4.0888,7.0528 C4.1744,7.0784 4.2664,6.924 4.2704,6.8432 C4.2752,6.7648 4.2584,6.5496 4.1536,6.5712 C4.1744,6.4072 4.1912,6.2616 4.1824,6.1832 C4.1552,5.8992 3.8752,5.6 3.4456,5.6 C3.016,5.6 2.736,5.8992 2.7096,6.1832 C2.7016,6.2616 2.7176,6.4072 2.7384,6.5712 C2.6336,6.5496 2.6168,6.7648 2.6216,6.8432 C2.6272,6.924 2.7176,7.0784 2.8032,7.0528 C2.8456,7.3848 2.9848,7.492 2.9848,7.492 L2.9808,7.8448 C2.9808,7.8448 2.8944,7.8984 2.5256,8.052 C2.1568,8.2048 1.7848,8.3136 1.6736,8.4848 C1.5744,8.6408 1.6048,9.0072 1.6048,9.0072 L5.2872,9.0072 C5.2872,9.0072 5.3176,8.6408 5.2176,8.4848 C5.1064,8.3136 4.7352,8.2048 4.3672,8.052"/>
        <polygon points="6.4 7.2 9.6 7.2 9.6 6.4 6.4 6.4"/>
        <polygon points="10.401 7.2 11.201 7.2 11.201 6.4 10.401 6.4"/>
        <polygon points="6.4 8.8 8.8 8.8 8.8 8 6.4 8"/>
        <polygon points="9.601 8.8 11.201 8.8 11.201 8 9.601 8"/>
      </g>
      <path d="M10.2666667,0 L1.46666667,0 C1.06406667,0 0.733333333,0.3375 0.733333333,0.75 L0.733333333,2.25 L1.83333333,2.25 C2.035,2.25 2.2,2.41875 2.2,2.625 C2.2,2.83125 2.035,3 1.83333333,3 L0.366666667,3 C0.165,3 0,3.16875 0,3.375 C0,3.58125 0.165,3.75 0.366666667,3.75 L0.733333333,3.75 L0.733333333,5.25 L1.83333333,5.25 C2.035,5.25 2.2,5.41875 2.2,5.625 C2.2,5.83125 2.035,6 1.83333333,6 L0.366666667,6 C0.165,6 0,6.16875 0,6.375 C0,6.58125 0.165,6.75 0.366666667,6.75 L0.733333333,6.75 L0.733333333,8.25 L1.83333333,8.25 C2.035,8.25 2.2,8.41875 2.2,8.625 C2.2,8.83125 2.035,9 1.83333333,9 L0.366666667,9 C0.165,9 0,9.16875 0,9.375 C0,9.58125 0.165,9.75 0.366666667,9.75 L0.733333333,9.75 L0.733333333,11.25 C0.733333333,11.6625 1.06406667,12 1.46666667,12 L10.2666667,12 C10.6707333,12 11,11.6625 11,11.25 L11,0.75 C11,0.3375 10.6707333,0 10.2666667,0 Z M8.7956,7.5 L4.5606,7.5 C4.5606,7.5 4.52613333,6.6255 4.63906667,6.44325 C4.76666667,6.24 5.19493333,6.114 5.6188,5.93325 C6.04266667,5.7525 6.14313333,5.69025 6.14313333,5.69025 L6.14606667,5.27475 C6.14606667,5.27475 5.9884,5.15025 5.93853333,4.75875 C5.83953333,4.788 5.73466667,4.60725 5.7288,4.512 C5.72366667,4.4205 5.74346667,4.1655 5.86373333,4.191 C5.83953333,3.99975 5.82266667,3.82725 5.83073333,3.73575 C5.86226667,3.402 6.18346667,3.05025 6.67773333,3.05025 C7.17126667,3.05025 7.49393333,3.402 7.52546667,3.73575 C7.53353333,3.82725 7.5152,3.99975 7.491,4.191 C7.61126667,4.1655 7.63106667,4.4205 7.6252,4.512 C7.62006667,4.60725 7.5152,4.788 7.4162,4.75875 C7.3678,5.15025 7.20866667,5.27475 7.20866667,5.27475 L7.21306667,5.69025 C7.21306667,5.69025 7.31353333,5.7525 7.73593333,5.93325 C8.1598,6.114 8.58806667,6.24 8.71566667,6.44325 C8.83006667,6.6255 8.7956,7.5 8.7956,7.5 L8.7956,7.5 Z" transform="translate(1 118)"/>
      <g transform="translate(0 168)">
        <path d="M6.75,0.75 L6.75,0 L2.25,0 L2.25,0.75 L0,0.75 L0,12 L12,12 L12,0.75 L6.75,0.75 Z M11.25,11.25 L0.75,11.25 L0.75,1.5 L2.25,1.5 L2.25,6 L4.5,3.75 L6.75,6 L6.75,1.5 L11.25,1.5 L11.25,11.25 L11.25,11.25 Z"/>
        <polygon points="2.25 10.5 8.25 10.5 8.25 9.75 2.25 9.75"/>
        <polygon points="2.25 9 9.75 9 9.75 8.25 2.25 8.25"/>
        <polygon points="2.25 7.5 9.75 7.5 9.75 6.75 2.25 6.75"/>
        <polygon points="8.25 6 9.75 6 9.75 5.25 8.25 5.25"/>
        <polygon points="8.25 4.5 9.75 4.5 9.75 3.75 8.25 3.75"/>
      </g>
      <path d="M6.00127814,0 L0,1.76933672 L0,10.2498007 L6.00127814,12 L12,10.2498007 L12,1.76933672 L6.00127814,0 Z M5.53944472,10.8856832 L0.923666832,9.53910837 L0.923666832,3.01848496 L5.53944472,4.3650598 L5.53944472,10.8856832 Z M1.61556487,2.23994201 L6.00127814,0.960347952 L10.3852872,2.23994201 L6.00127814,3.51866618 L1.61556487,2.23994201 Z M11.0780373,9.53910837 L6.46225946,10.8856832 L6.46225946,4.3650598 L11.0780373,3.01848496 L11.0780373,9.53910837 L11.0780373,9.53910837 Z" transform="translate(0 142)"/>
      <path d="M10.5,6.75 C10.16325,6.75 9.85575,6.8655 9.60525,7.053 L8.70825,6.33675 C8.889,6.0135 9,5.646 9,5.25 C9,4.76475 8.84325,4.31775 8.58075,3.9495 L9.7425,2.78775 C9.96525,2.91975 10.22325,3 10.5,3 C11.328,3 12,2.328 12,1.5 C12,0.672 11.328,0 10.5,0 C9.672,0 9,0.672 9,1.5 C9,1.7775 9.08025,2.03475 9.21225,2.2575 L8.0505,3.41925 C7.683,3.1575 7.236,3 6.75,3 C5.95725,3 5.2635,3.41325 4.8615,4.03275 L2.97825,3.22575 C2.988,3.15075 3,3.07725 3,3 C3,2.172 2.328,1.5 1.5,1.5 C0.672,1.5 0,2.172 0,3 C0,3.828 0.672,4.5 1.5,4.5 C1.98225,4.5 2.40675,4.2675 2.6805,3.91425 L4.569,4.72275 C4.52775,4.89225 4.5,5.06775 4.5,5.25 C4.5,5.73525 4.65825,6.18225 4.91925,6.5505 L2.2575,9.21225 C2.03475,9.08025 1.77825,9 1.5,9 C0.672,9 0,9.672 0,10.5 C0,11.328 0.672,12 1.5,12 C2.328,12 3,11.328 3,10.5 C3,10.2225 2.91975,9.96525 2.78775,9.7425 L5.4495,7.08075 C5.72025,7.27275 6.03375,7.40475 6.375,7.46175 L6.375,9.0525 C5.72925,9.21975 5.25,9.801 5.25,10.5 C5.25,11.32875 5.92125,12 6.75,12 C7.5795,12 8.25,11.32875 8.25,10.5 C8.25,9.801 7.77075,9.21975 7.125,9.0525 L7.125,7.46175 C7.551,7.3905 7.932,7.1985 8.241,6.9225 L9.1335,7.638 C9.0495,7.8255 9,8.03175 9,8.25 C9,9.078 9.672,9.75 10.5,9.75 C11.328,9.75 12,9.078 12,8.25 C12,7.422 11.328,6.75 10.5,6.75 Z M6.75,6.75 C5.922,6.75 5.25,6.07725 5.25,5.25 C5.25,4.42275 5.922,3.75 6.75,3.75 C7.578,3.75 8.25,4.42275 8.25,5.25 C8.25,6.07725 7.578,6.75 6.75,6.75 L6.75,6.75 Z" transform="translate(0 192)"/>
      <path d="M8.18181818,4.71942834 L8.18181818,3.58932183 C8.18181818,1.60981529 6.53072727,0 4.5,0 C2.47009091,0 0.818181818,1.60981529 0.818181818,3.58932183 L0.818181818,4.71942834 L0,4.71942834 L0,12 L9,12 L9,4.71942834 L8.18181818,4.71942834 Z M5.07027273,10.3820952 L3.71536364,10.3820952 L4.06063636,8.52635837 C3.85772727,8.40986922 3.71536364,8.20196845 3.71536364,7.95523797 C3.71536364,7.58473776 4.01890909,7.28461642 4.39281818,7.28461642 C4.76672727,7.28461642 5.07027273,7.58473776 5.07027273,7.95523797 C5.07027273,8.20196845 4.92790909,8.40986922 4.725,8.52635837 L5.07027273,10.3820952 Z M6.54545455,4.71942834 L2.45454545,4.71942834 L2.45454545,3.58932183 C2.45454545,2.5206957 3.39054545,1.61790481 4.5,1.61790481 C5.60945455,1.61790481 6.54545455,2.5206957 6.54545455,3.58932183 L6.54545455,4.71942834 L6.54545455,4.71942834 Z" transform="translate(2 216)"/>
      <path d="M9.72136302,9.48387097 C9.13071937,9.48387097 8.63787461,9.89729032 8.50696272,10.4516129 L4.59423731,10.4516129 C4.53109157,10.1396129 4.35320542,9.87174194 4.10986331,9.68593548 L4.60039787,8.12903226 L10.7809793,8.12903226 L12,2.75767742 L2.24244369,1.44619355 L1.46082269,0.922064516 L1.49547584,0.752516129 C1.49547584,0.336774194 1.16049541,0 0.74773792,0 C0.334980427,0 0,0.336774194 0,0.752516129 C0,1.16748387 0.334980427,1.50348387 0.74773792,1.50348387 L0.896361419,1.47329032 L1.81351473,2.08954839 L3.33671308,8.12903226 L3.79259449,8.12903226 L3.38445742,9.42425806 L3.33671308,9.4196129 C2.62824873,9.4196129 2.05377655,9.99716129 2.05377655,10.7101935 C2.05377655,11.4224516 2.62824873,12 3.33671308,12 C3.86267086,12 4.31393185,11.6810323 4.51183983,11.2258065 L8.56702817,11.2258065 C8.75569531,11.6802581 9.20156581,12 9.72136302,12 C10.4128858,12 10.9734968,11.4363871 10.9734968,10.7419355 C10.9734968,10.0474839 10.4128858,9.48387097 9.72136302,9.48387097"/>
    </g>
    <g fill="#96E28C" transform="translate(82)">
      <path d="M12,7.5 L12,0 L0,0 L0,7.5 L1.191,7.5 C1.236,7.63125 1.308,7.7565 1.39875,7.875 C1.22325,8.1045 1.125,8.35725 1.125,8.625 C1.125,8.8935 1.22325,9.14625 1.39875,9.375 C1.22325,9.6045 1.125,9.85725 1.125,10.125 C1.125,11.1765 2.60775,12 4.5,12 C6.39225,12 7.875,11.1765 7.875,10.125 C7.875,9.85725 7.77525,9.6045 7.60125,9.375 C7.77525,9.14625 7.875,8.8935 7.875,8.625 C7.875,8.35725 7.77525,8.1045 7.60125,7.875 C7.692,7.7565 7.7625,7.63125 7.809,7.5 L12,7.5 Z M4.5,11.25 C2.997,11.25 1.875,10.656 1.875,10.125 C1.875,10.0395 1.91325,9.95325 1.96875,9.867 C2.58225,10.254 3.47625,10.5 4.5,10.5 C5.52375,10.5 6.41625,10.254 7.03125,9.867 C7.08525,9.95325 7.125,10.0395 7.125,10.125 C7.125,10.656 6.0015,11.25 4.5,11.25 Z M4.5,9.75 C2.997,9.75 1.875,9.156 1.875,8.625 C1.875,8.5395 1.91325,8.45325 1.96875,8.367 C2.58225,8.754 3.47625,9 4.5,9 C5.52375,9 6.41625,8.754 7.03125,8.367 C7.08525,8.45325 7.125,8.5395 7.125,8.625 C7.125,9.156 6.0015,9.75 4.5,9.75 Z M4.5,8.25 C2.997,8.25 1.875,7.656 1.875,7.125 C1.875,6.594 2.997,6 4.5,6 C6.0015,6 7.125,6.594 7.125,7.125 C7.125,7.656 6.0015,8.25 4.5,8.25 Z M2.625,3.75 L3.75,3.75 L3.75,3 L2.625,3 L2.625,3.75 Z M4.5,3.75 C4.5,2.922 5.17275,2.25 6,2.25 C6.828,2.25 7.5,2.922 7.5,3.75 C7.5,4.578 6.828,5.25 6,5.25 C5.17275,5.25 4.5,4.578 4.5,3.75 Z M7.203,6 L10.5,6 L10.5,1.5 L1.5,1.5 L1.5,6 L1.79775,6 C1.506,6.21825 1.28925,6.4695 1.191,6.75 L0.75,6.75 L0.75,0.75 L11.25,0.75 L11.25,6.75 L7.809,6.75 C7.70925,6.4695 7.494,6.21825 7.203,6 Z M8.25,3.75 L9.375,3.75 L9.375,3 L8.25,3 L8.25,3.75 Z" transform="translate(1 24)"/>
      <g transform="translate(1)">
        <path d="M10.50075,0 L1.67775,0 L4.677,1.5 L9.75,1.5 L9.75,2.25 L6.17625,2.25 L7.16475,2.74425 C7.56075,2.9415 7.89225,3.32175 8.0805,3.75 L9.75,3.75 L9.75,4.5 L8.25075,4.5 L8.25075,8.25 L10.50075,8.25 C10.9125,8.25 11.25075,7.9125 11.25075,7.5 L11.25075,0.75 C11.25075,0.3375 10.9125,0 10.50075,0"/>
        <path d="M6.8295,3.41475 L0.67125,0.33525 C0.5745,0.2865 0.48225,0.264 0.39975,0.264 C0.16425,0.264 0.00075,0.4455 0.00075,0.74925 L0.00075,7.49925 C0.00075,7.91175 0.30225,8.40075 0.67125,8.58525 L6.8295,11.66475 C6.92625,11.7135 7.0185,11.736 7.101,11.736 C7.3365,11.736 7.5,11.5545 7.5,11.24925 L7.5,4.49925 C7.5,4.0875 7.1985,3.5985 6.8295,3.41475 Z M5.25,8.25 C4.836,8.25 4.50075,7.74675 4.50075,7.125 C4.50075,6.50325 4.836,6 5.25,6 C5.66475,6 6.00075,6.50325 6.00075,7.125 C6.00075,7.74675 5.66475,8.25 5.25,8.25 L5.25,8.25 Z"/>
      </g>
      <g transform="translate(0 48)">
        <path d="M4.3342 7.71428571L4.3342 6 0 9 4.3342 12 4.3342 10.2857143C13.0355333 10.632 12.1342 6 12.1342 6 11.2675333 8.57142857 5.0856 7.74428571 4.3342 7.71428571M7.82773333 4.28571429L7.82773333 6 12.1610667 3 7.82773333 0 7.82773333 1.71428571C-.8736 1.368.0277333333 6 .0277333333 6 .8944 3.42857143 7.07633333 4.25571429 7.82773333 4.28571429"/>
      </g>
      <g transform="translate(0 72)">
        <polyline points="9.064 6.76 10.213 7.891 10.788 7.326 9.639 6.194 9.064 6.76"/>
        <polygon points="10.689 6.094 12.314 6.094 12.314 5.294 10.689 5.294"/>
        <polyline points="11.362 1.103 10.788 .538 9.639 1.669 10.213 2.234 11.362 1.103"/>
        <polygon points="7.033 1.6 7.846 1.6 7.846 0 7.033 0"/>
        <polyline points="5.618 2.234 4.468 1.104 3.894 1.669 5.043 2.8 5.618 2.234"/>
        <path d="M7.8739375,2.2744 L0,10.028 L1.7233125,11.7248 L9.59725,3.9712 L7.8739375,2.2744 Z M6.150625,5.1032 L7.8739375,3.4064 L8.448375,3.9712 L6.7250625,5.6688 L6.150625,5.1032 L6.150625,5.1032 Z"/>
      </g>
      <g transform="translate(0 96)">
        <polyline points="10.166 1.591 8.543 0 3.824 4.553 5.354 6.053 10.166 1.591"/>
        <polyline points="3.005 5.431 2.294 7.553 4.627 7.022 3.005 5.431"/>
        <polyline points="9.176 4.553 9.176 5.303 11.471 5.303 11.471 10.553 .765 10.553 .765 5.303 1.53 5.303 1.53 4.553 0 4.553 0 11.303 12.236 11.303 12.236 4.553 9.176 4.553"/>
        <polygon points="6.118 7.553 9.942 7.553 9.942 6.803 6.118 6.803"/>
        <polygon points="4.588 9.053 9.941 9.053 9.941 8.303 4.588 8.303"/>
      </g>
    </g>
    <g transform="translate(109)">
      <g fill="#96E28C" transform="translate(1)">
        <path d="M0.8536,4.3125 C1.21293333,4.60275 1.67346667,4.85625 2.21026667,5.0625 C3.1284,5.4135 4.26433333,5.625 5.5,5.625 C6.7364,5.625 7.8716,5.4135 8.78973333,5.0625 C9.32653333,4.85625 9.78706667,4.60275 10.1464,4.3125 C10.4316667,4.08225 10.6509333,3.83025 10.7961333,3.5625 C10.9252,3.32325 11,3.072 11,2.8125 C11,1.25925 8.5382,0 5.5,0 C2.4618,0 0,1.25925 0,2.8125 C0,3.072 0.0748,3.32325 0.203866667,3.5625 C0.3498,3.83025 0.569066667,4.08225 0.8536,4.3125"/>
        <path d="M10.1464,5.8125 C9.78706667,6.10275 9.32653333,6.35625 8.78973333,6.5625 C7.8716,6.9135 6.73566667,7.125 5.5,7.125 C4.2636,7.125 3.1284,6.9135 2.21026667,6.5625 C1.67346667,6.35625 1.21293333,6.10275 0.8536,5.8125 C0.568333333,5.58225 0.349066667,5.33025 0.203866667,5.0625 C0.0748,5.301 0,5.55225 0,5.8125 C0,6.072 0.0748,6.32325 0.203866667,6.5625 C0.349066667,6.83025 0.568333333,7.08225 0.8536,7.3125 C1.8282,8.09925 3.542,8.625 5.5,8.625 C7.458,8.625 9.1718,8.09925 10.1464,7.3125 C10.4309333,7.08225 10.6502,6.83025 10.7961333,6.5625 C10.9252,6.32325 11,6.072 11,5.8125 C11,5.55225 10.9252,5.301 10.7961333,5.0625 C10.6502,5.33025 10.4309333,5.58225 10.1464,5.8125"/>
        <path d="M5.5,10.125 C2.97146667,10.125 0.846266667,9.24975 0.203866667,8.0625 C0.0748,8.301 0,8.55225 0,8.8125 C0,10.365 2.4618,11.625 5.5,11.625 C8.5382,11.625 11,10.365 11,8.8125 C11,8.55225 10.9252,8.301 10.7961333,8.0625 C10.1537333,9.24975 8.02853333,10.125 5.5,10.125"/>
      </g>
      <path fill="#96E28C" d="M9.23076923,0.879 C8.34538462,0.35175 6.78384615,0 4.99923077,0 C3.21538462,0 1.65384615,0.35175 0.769230769,0.879 C0.284615385,1.16775 0,1.509 0,1.875 L0,10.125 C0,10.491 0.284615385,10.83225 0.769230769,11.121 C1.65384615,11.64825 3.21538462,12 4.99923077,12 C6.78384615,12 8.34538462,11.64825 9.23076923,11.121 C9.71461538,10.83225 10,10.491 10,10.125 L10,1.875 C10,1.509 9.71461538,1.16775 9.23076923,0.879 Z M9.23076923,10.1235 C9.18,10.4505 7.63461538,11.25 4.99923077,11.25 C2.36461538,11.25 0.819230769,10.4505 0.769230769,10.1265 L0.769230769,8.124 C1.65384615,8.65125 3.21538462,9.003 4.99923077,9.003 C6.78384615,9.003 8.34538462,8.65125 9.23076923,8.124 L9.23076923,10.1235 Z M9.23076923,7.1265 C9.18,7.45275 7.63461538,8.253 4.99923077,8.253 C2.36461538,8.253 0.819230769,7.45275 0.769230769,7.1295 L0.769230769,5.4975 C1.65384615,6.02475 3.21538462,6.3765 4.99923077,6.3765 C6.78384615,6.3765 8.34538462,6.02475 9.23076923,5.4975 L9.23076923,7.1265 Z M9.23076923,4.5 C9.18,4.827 7.63461538,5.6265 4.99923077,5.6265 C2.36461538,5.6265 0.819230769,4.827 0.769230769,4.503 L0.769230769,2.871 C1.65384615,3.39825 3.21538462,3.75 4.99923077,3.75 C6.78384615,3.75 8.34538462,3.39825 9.23076923,2.871 L9.23076923,4.5 Z M4.99923077,3 C2.36461538,3 0.819230769,2.2005 0.769230769,1.8765 C0.819230769,1.5495 2.36461538,0.75 4.99923077,0.75 C7.63461538,0.75 9.18,1.5495 9.23076923,1.8735 C9.18,2.2005 7.63461538,3 4.99923077,3 L4.99923077,3 Z" transform="translate(2 24)"/>
      <g fill="#96E28C" transform="translate(1 48)">
        <path d="M6.6,10.44675 C7.83053333,10.332 8.87773333,10.03125 9.53333333,9.621 C9.9946,9.33225 10.2659333,8.991 10.2659333,8.625 L10.2659333,1.875 C10.2659333,1.509 9.9946,1.16775 9.53333333,0.879 C8.68926667,0.35175 7.2006,0 5.5,0 C3.79866667,0 2.31,0.35175 1.46593333,0.879 C1.00466667,1.16775 0.733333333,1.509 0.733333333,1.875 L0.733333333,8.625 C0.733333333,8.991 1.00466667,9.33225 1.46593333,9.621 C2.12153333,10.03125 3.16873333,10.332 4.4,10.44675 L4.4,11.25 L2.2,11.25 L2.2,12 L8.8,12 L8.8,11.25 L6.6,11.25 L6.6,10.44675 Z M5.5,0.75 C8.01166667,0.75 9.48493333,1.5495 9.53333333,1.8735 C9.48493333,2.2005 8.01166667,3 5.5,3 C2.9876,3 1.51433333,2.2005 1.46593333,1.8765 C1.51433333,1.5495 2.9876,0.75 5.5,0.75 Z M1.46593333,2.871 C2.31,3.39825 3.79866667,3.75 5.5,3.75 C7.2006,3.75 8.68926667,3.39825 9.53333333,2.871 L9.53333333,4.1235 C9.48493333,4.4505 8.01166667,5.25 5.5,5.25 C2.9876,5.25 1.51433333,4.4505 1.46593333,4.1265 L1.46593333,2.871 Z M1.46593333,5.121 C2.31,5.64825 3.79866667,6 5.5,6 C7.2006,6 8.68926667,5.64825 9.53333333,5.121 L9.53333333,6.3735 C9.48493333,6.7005 8.01166667,7.5 5.5,7.5 C2.9876,7.5 1.51433333,6.7005 1.46593333,6.3765 L1.46593333,5.121 Z M1.46593333,8.6265 L1.46593333,7.371 C2.31,7.89825 3.79866667,8.25 5.5,8.25 C7.2006,8.25 8.68926667,7.89825 9.53333333,7.371 L9.53333333,8.6235 C9.48493333,8.9505 8.01166667,9.75 5.5,9.75 C2.9876,9.75 1.51433333,8.9505 1.46593333,8.6265 L1.46593333,8.6265 Z"/>
        <polygon points="9.533 12 11 12 11 11.25 9.533 11.25"/>
        <polygon points="0 12 1.467 12 1.467 11.25 0 11.25"/>
      </g>
      <g fill="#96E28C" transform="translate(0 96)">
        <path d="M11.2,5.6 L10.4,5.6 L10.4,4 C10.84,4 11.2,4.36 11.2,4.8 L11.2,5.6 Z M11.2,10.4 C11.2,10.84 10.84,11.2 10.4,11.2 L4.8,11.2 C4.36,11.2 4,10.84 4,10.4 L8.8,10.4 C9.6824,10.4 10.4,9.6824 10.4,8.8 L10.4,6.4 L11.2,6.4 L11.2,10.4 Z M3.2,9.6 C2.76,9.6 2.4,9.24 2.4,8.8 L7.2,8.8 C8.0824,8.8 8.8,8.0824 8.8,7.2 L8.8,4.8 L9.6,4.8 L9.6,8.8 C9.6,9.24 9.24,9.6 8.8,9.6 L3.2,9.6 Z M1.6,8 C1.16,8 0.8,7.64 0.8,7.2 L0.8,4 L8,4 L8,7.2 C8,7.64 7.64,8 7.2,8 L1.6,8 Z M0.8,1.6 C0.8,1.16 1.16,0.8 1.6,0.8 L7.2,0.8 C7.64,0.8 8,1.16 8,1.6 L8,3.2 L0.8,3.2 L0.8,1.6 Z M8.8,2.4 C9.24,2.4 9.6,2.76 9.6,3.2 L9.6,4 L8.8,4 L8.8,2.4 Z M10.4,3.2 C10.4,2.3176 9.6824,1.6 8.8,1.6 C8.8,0.7176 8.0824,0 7.2,0 L1.6,0 C0.7176,0 0,0.7176 0,1.6 L0,7.2 C0,8.0824 0.7176,8.8 1.6,8.8 C1.6,9.6824 2.3176,10.4 3.2,10.4 C3.2,11.2824 3.9176,12 4.8,12 L10.4,12 C11.2824,12 12,11.2824 12,10.4 L12,4.8 C12,3.9176 11.2824,3.2 10.4,3.2 L10.4,3.2 Z"/>
        <path d="M2.6 1.4C2.2688 1.4 2 1.6688 2 2 2 2.3312 2.2688 2.6 2.6 2.6 2.9312 2.6 3.2 2.3312 3.2 2 3.2 1.6688 2.9312 1.4 2.6 1.4M4.2 1.4C3.8688 1.4 3.6 1.6688 3.6 2 3.6 2.3312 3.8688 2.6 4.2 2.6 4.5312 2.6 4.8 2.3312 4.8 2 4.8 1.6688 4.5312 1.4 4.2 1.4"/>
      </g>
      <g fill="#96E28C" transform="translate(0 120)">
        <path d="M9,10.5 L9.75,10.5 L9.75,9 L9,9 L9,10.5 Z M8.25,7.125 C8.25,6.504 8.75325,6 9.375,6 C9.99675,6 10.5,6.504 10.5,7.125 L10.5,7.5 L8.25,7.5 L8.25,7.125 Z M11.25,7.5 L11.25,7.125 C11.25,6.08925 10.41075,5.25 9.375,5.25 C8.33925,5.25 7.5,6.08925 7.5,7.125 L7.5,7.5 L6.75,7.5 L6.75,12 L12,12 L12,7.5 L11.25,7.5 Z"/>
        <path d="M6.75,6 C6.75,5.3025 8.25,5.295 8.25,2.25 C8.25,0.8475 6.6525,0 5.25,0 C3.8475,0 2.25,0.8475 2.25,2.25 C2.25,5.25 3.75,5.295 3.75,6 C3.75,6.705 0.33,7.8975 0,8.4075 L0,10.5075 L6,10.5075 L6,9.7575 L0.75,9.7575 L0.75,8.76 C1.005,8.61 1.5,8.385 1.8225,8.2125 C3.48,7.41 4.5,6.87 4.5,6 C4.4775,5.5545 4.257,5.142 3.9,4.875 C3.5175,4.5 3,3.99 3,2.2575 C3,1.3725 4.185,0.7575 5.25,0.7575 C6.315,0.7575 7.5,1.3725 7.5,2.2575 C7.5,3.99 6.975,4.5075 6.6,4.875 C6.243,5.142 6.0225,5.5545 6,6 L6.75,6 Z"/>
      </g>
      <g fill="#96E28C" transform="translate(0 144)">
        <path d="M10.5,0 L1.5,0 C0.67275,0 0,0.67275 0,1.5 L0,10.5 C0,11.32725 0.67275,12 1.5,12 L10.5,12 C11.328,12 12,11.32725 12,10.5 L12,1.5 C12,0.67275 11.328,0 10.5,0 Z M11.25,10.5 C11.25,10.9125 10.91325,11.25 10.5,11.25 L1.5,11.25 C1.08825,11.25 0.75,10.9125 0.75,10.5 L0.75,3.75 L11.25,3.75 L11.25,10.5 Z M11.25,3 L0.75,3 L0.75,1.5 C0.75,1.0875 1.08825,0.75 1.5,0.75 L10.5,0.75 C10.91325,0.75 11.25,1.0875 11.25,1.5 L11.25,3 L11.25,3 Z"/>
        <path d="M2.4375 1.3125C2.127 1.3125 1.875 1.5645 1.875 1.875 1.875 2.1855 2.127 2.4375 2.4375 2.4375 2.748 2.4375 3 2.1855 3 1.875 3 1.5645 2.748 1.3125 2.4375 1.3125M3.9375 1.3125C3.627 1.3125 3.375 1.5645 3.375 1.875 3.375 2.1855 3.627 2.4375 3.9375 2.4375 4.248 2.4375 4.5 2.1855 4.5 1.875 4.5 1.5645 4.248 1.3125 3.9375 1.3125M5.4375 1.3125C5.127 1.3125 4.875 1.5645 4.875 1.875 4.875 2.1855 5.127 2.4375 5.4375 2.4375 5.748 2.4375 6 2.1855 6 1.875 6 1.5645 5.748 1.3125 5.4375 1.3125"/>
        <polygon points="4.313 6 9.563 6 9.563 5.25 4.313 5.25"/>
        <polygon points="2.25 6 3.375 6 3.375 5.25 2.25 5.25"/>
        <polygon points="4.313 7.5 9.563 7.5 9.563 6.75 4.313 6.75"/>
        <polygon points="2.25 7.5 3.375 7.5 3.375 6.75 2.25 6.75"/>
        <polygon points="4.313 9 9.563 9 9.563 8.25 4.313 8.25"/>
        <polygon points="2.25 9 3.375 9 3.375 8.25 2.25 8.25"/>
      </g>
      <g transform="translate(0 168)">
        <use fill="#96E28C" xlink:href="#a"/>
      </g>
      <path fill="#96E28C" d="M11.82375,6.32775 C11.934,6.25425 12,6.13125 12,5.99925 C12,5.86725 11.934,5.74425 11.82375,5.67075 L10.58325,4.8435 L10.55175,4.69725 L11.208,3.372 C11.26575,3.2535 11.262,3.11325 11.19525,2.99925 C11.12925,2.88525 11.01075,2.81175 10.8795,2.80275 L9.39975,2.70675 L9.29175,2.5995 L9.19575,1.1205 C9.1875,0.9885 9.114,0.86925 9,0.80325 C8.88525,0.73725 8.74575,0.7335 8.6265,0.792 L7.29975,1.4475 L7.1505,1.4085 L6.32775,0.1755 C6.25425,0.06525 6.13125,0 5.99925,0 C5.868,0 5.74425,0.06525 5.67075,0.1755 L4.848,1.40925 L4.6995,1.44825 L3.372,0.792 C3.2535,0.7335 3.114,0.73725 2.99925,0.80325 C2.8845,0.86925 2.81175,0.9885 2.8035,1.1205 L2.7075,2.60025 L2.60025,2.7075 L1.11975,2.8035 C0.98775,2.81175 0.86925,2.886 0.804,3 C0.73725,3.114 0.73275,3.2535 0.79125,3.37275 L1.44825,4.701 L1.40925,4.84875 L0.1755,5.6715 C0.06525,5.745 0,5.868 0,6 C0,6.132 0.06525,6.255 0.1755,6.3285 L1.40925,7.152 L1.44825,7.3005 L0.792,8.62725 C0.7335,8.74575 0.738,8.886 0.804,9 C0.87,9.114 0.9885,9.1875 1.11975,9.1965 L2.60025,9.2925 L2.70825,9.39975 L2.80425,10.8795 C2.8125,11.0115 2.88525,11.13 3,11.196 C3.11475,11.262 3.25425,11.2665 3.37275,11.208 L4.6995,10.55175 L4.8495,10.59075 L5.6715,11.8245 C5.745,11.934 5.86875,12 6.00075,12 C6.132,12 6.25575,11.934 6.32925,11.8245 L7.152,10.59075 L7.302,10.55175 L8.628,11.20725 C8.7465,11.26575 8.886,11.262 9.00075,11.196 C9.1155,11.13 9.18825,11.01075 9.19725,10.87875 L9.2925,9.4005 L9.402,9.291 L10.88025,9.19575 C11.0115,9.1875 11.13,9.11325 11.196,8.99925 C11.26275,8.88525 11.26725,8.74575 11.20875,8.6265 L10.5525,7.29975 L10.584,7.15425 L11.82375,6.32775 Z M3,3 C3,2.5875 3.3375,2.25 3.74925,2.25 L4.5,2.25 C4.91175,2.25 5.25,2.5875 5.25,3 L5.25,4.5 C5.25,4.91175 4.91175,5.25 4.5,5.25 L3.74925,5.25 C3.3375,5.25 3,4.91175 3,4.5 L3,3 Z M9,8.25 C9,8.66175 8.66175,9 8.24925,9 L7.5,9 C7.0875,9 6.75,8.66175 6.75,8.25 L6.75,6.75 C6.75,6.3375 7.0875,6 7.5,6 L8.24925,6 C8.66175,6 9,6.3375 9,6.75 L9,8.25 Z M4.5,9 L3,9 L7.5,2.25 L9,2.25 L4.5,9 L4.5,9 Z" transform="translate(0 192)"/>
      <g fill="#96E28C" transform="translate(0 73)">
        <path d="M0,7.14285714 L12,7.14285714 L12,0 L0,0 L0,7.14285714 Z M0.75,6.42857143 L11.25,6.42857143 L11.25,0.714285714 L0.75,0.714285714 L0.75,6.42857143 Z"/>
        <path d="M1.5,5.71428571 L10.5,5.71428571 L10.5,1.42857143 L1.5,1.42857143 L1.5,5.71428571 Z M2.625,3.57142857 L3.75,3.57142857 L3.75,2.85714286 L2.625,2.85714286 L2.625,3.57142857 Z M6,5 C5.172,5 4.5,4.36 4.5,3.57142857 C4.5,2.78285714 5.172,2.14285714 6,2.14285714 C6.828,2.14285714 7.5,2.78285714 7.5,3.57142857 C7.5,4.36 6.828,5 6,5 Z M8.25,3.57142857 L9.375,3.57142857 L9.375,2.85714286 L8.25,2.85714286 L8.25,3.57142857 Z"/>
        <polygon points=".75 8.571 11.25 8.571 11.25 7.857 .75 7.857"/>
        <polygon points="1.5 10 10.5 10 10.5 9.286 1.5 9.286"/>
      </g>
    </g>
  </g>
</svg>
