<svg xmlns="http://www.w3.org/2000/svg" width="200" height="150" viewBox="0 0 200 150" xmlns:xlink="http://www.w3.org/1999/xlink">
  <defs>
    <path id="b" d="M15.8525883,117.702707 L13.0613899,114.912522 C13.768561,113.809213 14.1849612,112.500237 14.1849612,111.091974 C14.1849612,107.175178 11.0097831,104 7.09298718,104 C3.17517809,104 0,107.175178 0,111.091974 C0,115.00877 3.17517809,118.183948 7.09298718,118.183948 C8.50023745,118.183948 9.80921323,117.768561 10.9125218,117.06139 L13.702707,119.851575 C13.899256,120.049137 14.2224474,120.049137 14.4189964,119.851575 L15.8525883,118.418996 C16.0491372,118.222447 16.0491372,117.900269 15.8525883,117.702707 Z M7.09298718,116.15767 C4.29976255,116.15767 2.02729144,113.885199 2.02729144,111.091974 C2.02729144,108.298749 4.29976255,106.026278 7.09298718,106.026278 C9.88519867,106.026278 12.1576698,108.298749 12.1576698,111.091974 C12.1576698,113.885199 9.88519867,116.15767 7.09298718,116.15767 L7.09298718,116.15767 Z"/>
    <filter id="a" width="200%" height="200%" x="-50%" y="-50%" filterUnits="objectBoundingBox">
      <feOffset dx="1" dy="1" in="SourceAlpha" result="shadowOffsetOuter1"/>
      <feColorMatrix values="0 0 0 0 1 0 0 0 0 1 0 0 0 0 1 0 0 0 0.4 0" in="shadowOffsetOuter1"/>
    </filter>
  </defs>
  <g fill="none" fill-rule="evenodd" transform="translate(17 13)">
    <path fill="#FFFFFF" d="M15.8525883,17.702707 L13.0613899,14.9125218 C13.768561,13.8092132 14.1849612,12.5002375 14.1849612,11.091974 C14.1849612,7.17517809 11.0097831,4 7.09298718,4 C3.17517809,4 0,7.17517809 0,11.091974 C0,15.00877 3.17517809,18.1839481 7.09298718,18.1839481 C8.50023745,18.1839481 9.80921323,17.768561 10.9125218,17.0613899 L13.702707,19.8515751 C13.899256,20.0491372 14.2224474,20.0491372 14.4189964,19.8515751 L15.8525883,18.4189964 C16.0491372,18.2224474 16.0491372,17.9002691 15.8525883,17.702707 Z M7.09298718,16.1576698 C4.29976255,16.1576698 2.02729144,13.8851987 2.02729144,11.091974 C2.02729144,8.29874941 4.29976255,6.0262783 7.09298718,6.0262783 C9.88519867,6.0262783 12.1576698,8.29874941 12.1576698,11.091974 C12.1576698,13.8851987 9.88519867,16.1576698 7.09298718,16.1576698 L7.09298718,16.1576698 Z"/>
    <use fill="black" filter="url(#a)" xlink:href="#b"/>
    <use fill="#313D4D" xlink:href="#b"/>
    <g transform="translate(42)">
      <rect width="32" height="24" stroke="#96E28C" rx="12"/>
      <polyline fill="#FFFFFF" points="20.484 8.709 19.777 8.002 16.242 11.537 12.707 8 12 8.707 15.535 12.244 12 15.779 12.707 16.486 16.242 12.951 19.777 16.486 20.484 15.779 16.949 12.244 20.484 8.709"/>
    </g>
    <polyline fill="#1A1918" points="108.455 11.545 108.455 7 107.545 7 107.545 11.545 103 11.545 103 12.455 107.545 12.455 107.545 17 108.455 17 108.455 12.455 113 12.455 113 11.545 108.455 11.545"/>
    <g transform="translate(42 100)">
      <rect width="32" height="24" fill="#FFFFFF" rx="12"/>
      <polyline fill="#465870" points="20.484 8.709 19.777 8.002 16.242 11.537 12.707 8 12 8.707 15.535 12.244 12 15.779 12.707 16.486 16.242 12.951 19.777 16.486 20.484 15.779 16.949 12.244 20.484 8.709"/>
    </g>
    <circle cx="158" cy="12" r="3" fill="#96E28C"/>
    <circle cx="108" cy="112" r="3" fill="#FFFFFF"/>
    <polygon fill="#FFFFFF" points="11 62.501 6.584 59 6 59.824 9.375 62.501 6 65.176 6.584 66"/>
    <g fill="#FFFFFF" transform="translate(52 56)">
      <path d="M9.4455.85275C8.66325 1.113 7.54575 1.8045 6.96225 2.388L3.78075 5.5695C3.489 5.86125 3.489 6.33825 3.78075 6.63L5.3715 8.22075C5.66325 8.5125 6.14025 8.5125 6.432 8.22075L9.6135 5.03925C10.197 4.45575 10.8885 3.33825 11.14875 2.5545L12 0 9.4455.85275zM7.22775 6.3645C6.78825 6.804 6.0765 6.804 5.637 6.3645 5.1975 5.925 5.196 5.21325 5.637 4.77375 6.0765 4.33425 6.78825 4.33425 7.22775 4.77375 7.66725 5.21325 7.66725 5.925 7.22775 6.3645zM9.34875 4.2435C8.90925 4.683 8.1975 4.683 7.758 4.2435 7.3185 3.80475 7.3185 3.09225 7.758 2.65275 8.1975 2.21325 8.90925 2.21325 9.34875 2.65275 9.78825 3.09225 9.78825 3.80475 9.34875 4.2435L9.34875 4.2435zM1.65825 6.63L4.311 3.97875C3.72675 3.396 2.77275 3.396 2.19 3.97875L.59775 5.5695C.306 5.86125.306 6.33825.59775 6.63.88875 6.92175 1.3665 6.92175 1.65825 6.63zM5.3715 10.34175C5.07975 10.6335 5.07975 11.1105 5.3715 11.40225 5.66325 11.694 6.14025 11.694 6.432 11.40225L8.02275 9.8115C8.60625 9.22875 8.60625 8.27325 8.02275 7.6905L5.3715 10.34175zM2.98425 7.42575C2.83875 7.572 2.83875 7.8105 2.98425 7.95525L4.0455 9.0165C4.191 9.16275 4.4295 9.16275 4.5765 9.0165L4.84125 8.751 3.249 7.16025 2.98425 7.42575zM0 12C1.5 11.25 3.75 9.75 3 9 2.25 8.25.75 10.5 0 12z"/>
    </g>
    <g fill="#96E28C" transform="translate(97 59)">
      <circle cx="21" cy="3" r="1"/>
      <circle cx="11" cy="3" r="3"/>
      <circle cx="1" cy="3" r="1"/>
    </g>
    <polyline fill="#FFFFFF" points="166 55.337 164.667 54.004 158 60.669 151.333 54 150 55.333 156.667 62.002 150 68.667 151.333 70 158 63.335 164.667 70 166 68.667 159.333 62.002 166 55.337"/>
    <polyline fill="#96E28C" points="166 105.337 164.667 104.004 158 110.669 151.333 104 150 105.333 156.667 112.002 150 118.667 151.333 120 158 113.335 164.667 120 166 118.667 159.333 112.002 166 105.337"/>
  </g>
</svg>
